<?xml version="1.0" encoding="UTF-8"?>
<svg id="Layer_1" xmlns="http://www.w3.org/2000/svg" version="1.1" viewBox="0 0 150 100">
  <!-- Generator: Adobe Illustrator 30.3.0, SVG Export Plug-In . SVG Version: 2.1.3 Build 182)  -->
  <path d="M0,59.5v-7.3l.4-.8c.8-5.4,2.7-10.3,5.8-14.7,6.2-8.4,16.5-12.6,26.7-10.6,6.7,1.4,12,6,14.3,12.4,1.7,4.5,1.8,8.6,5.3,11.9,3.4,3.1,8.2,2.7,11.1-.9,2-2.5,3.1-5.6,3.6-8.8.8-5.2,2.7-11.2,7.5-13.6,5.3-2.7,11.5-1.2,15.4,3.2,2,2.3,3.4,4.9,4.1,7.9l1.2,5.6c.4,1.8,1.3,3.5,2.6,4.8,1.9,1.8,4.7,1.6,6.5-.2,1.8-1.8,3.2-3.7,4.9-5.7,2.5-3,5.7-5.5,9.6-6.2,10.2-2,19.2,6,19.1,16.2,0,8.7-3.5,11.1-5.7,16.8-.8,1.9-.8,4.4.7,5.9,1.8,1.8,4.4,1.1,6-.6,2.3-2.6,4.8-4.6,7.9-3.1,3.7,1.7,3.7,8.4.3,12.6-2.6,3.2-6.3,5.2-10.4,5.6-3.4.4-6.5.1-9.5-1.2-4.9-2.1-8-6.8-8-12.2,0-5.4,1.8-8.8,4.3-13.4,1.4-2.4,2.1-5.1,1.5-7.8-.5-2.4-2.2-4.3-4.6-4.6-6.3-.9-9.5,5.8-10.9,11.5-.7,3-1.6,5.9-3.3,8.5-2.4,3.6-6.5,5.3-10.7,4.5-6.5-1.1-9.1-6.6-9.7-12.9-.4-4.4-2.2-10-6.4-10.8-5.4-1-8.7,5.1-11,9.6-5.3,10.4-12.7,20.1-23.8,24.5-12.6,5-27.2,1.8-36.6-7.9-4.6-4.9-7.5-10.9-8.2-17.5l-.4-.6Z"/>
  <path d="M142.2,10.1c3.8.8,6.5,4.3,6.1,8.2-.4,3.8-3.6,6.7-7.4,6.7-3.9,0-7.2-3-7.5-7-.3-3.8,2.4-7.2,6.1-8h2.7Z"/>
</svg>